<svg xmlns="http://www.w3.org/2000/svg" width="34" height="34" viewBox="0 0 34 34"><defs><style>.youtube-a,.youtube-b{fill:currentColor;}.youtube-a{opacity:0;}</style></defs><g transform="translate(0.481)"><rect class="youtube-a" width="34" height="34" transform="translate(-0.481)"/><path class="youtube-b" d="M28.969,9.661a3.272,3.272,0,0,0-2.319-2.33c-2.039-.56-10.241-.56-10.241-.56s-8.2,0-10.241.56a3.272,3.272,0,0,0-2.319,2.33,34.453,34.453,0,0,0-.549,6.33,34.52,34.52,0,0,0,.549,6.353,3.238,3.238,0,0,0,2.319,2.241c2.039.56,10.241.56,10.241.56s8.2,0,10.241-.56a3.238,3.238,0,0,0,2.319-2.241,34.52,34.52,0,0,0,.549-6.353A34.453,34.453,0,0,0,28.969,9.661ZM13.731,19.912V12.07l6.846,3.921Z" transform="translate(0.304 0.815)"/></g></svg>