<svg xmlns="http://www.w3.org/2000/svg" width="34" height="34" viewBox="0 0 34 34"><defs><style>.twitter-a,.twitter-b{fill:currentColor;}.twitter-b{opacity:0;}</style></defs><g transform="translate(0.037)"><path class="twitter-a" d="M26.08,11.068a6.522,6.522,0,0,1,0,.661A14.24,14.24,0,0,1,11.772,26.06,14.252,14.252,0,0,1,4.03,23.819a10.856,10.856,0,0,0,1.221.1A10.084,10.084,0,0,0,11.5,21.679a5.075,5.075,0,0,1-4.717-3.5,6.722,6.722,0,0,0,.952.078,5.244,5.244,0,0,0,1.333-.179,5.031,5.031,0,0,1-4.045-4.941v-.056a5.187,5.187,0,0,0,2.241.639A5.064,5.064,0,0,1,5.711,7,14.352,14.352,0,0,0,16.1,12.279a5.681,5.681,0,0,1-.123-1.12,5.042,5.042,0,0,1,8.75-3.473,9.983,9.983,0,0,0,3.2-1.21,5.042,5.042,0,0,1-2.241,2.767,9.837,9.837,0,0,0,2.958-.773,10.722,10.722,0,0,1-2.532,2.6Z" transform="translate(0.335 0.729)"/><rect class="twitter-b" width="34" height="34" transform="translate(-0.037)"/></g></svg>