<svg xmlns="http://www.w3.org/2000/svg" width="34" height="34" viewBox="0 0 34 34"><defs><style>.reddit-a,.reddit-b{fill:currentColor;}.reddit-b{opacity:0;}</style></defs><g transform="translate(0.481)"><path class="reddit-a" d="M25.075,13.635a2.588,2.588,0,0,0-1.826.762,12.381,12.381,0,0,0-6.577-2.028l1.333-5.994,4.235.952a1.882,1.882,0,0,0,1.882,1.882,1.9,1.9,0,1,0,0-3.809,1.961,1.961,0,0,0-1.7,1.053L17.748,5.422a.437.437,0,0,0-.527.336l-1.457,6.61a12.4,12.4,0,0,0-6.543,2.05,2.588,2.588,0,0,0-1.849-.784,2.532,2.532,0,0,0-1.12,4.807,5.21,5.21,0,0,0-.112,1.188c0,4.022,4.482,7.283,10.084,7.283s10.084-3.26,10.084-7.283a4.84,4.84,0,0,0-.09-1.232,2.521,2.521,0,0,0-1.12-4.784ZM10.152,18.7a1.893,1.893,0,1,1,.542,1.372A1.893,1.893,0,0,1,10.152,18.7Zm10.285,4.482c-1.748,1.737-6.722,1.737-8.425,0a.459.459,0,1,1,.627-.661c1.344,1.367,5.77,1.389,7.159,0a.456.456,0,1,1,.627.661Zm0-2.611a1.893,1.893,0,1,1,1.893-1.893,1.893,1.893,0,0,1-1.893,1.893Z" transform="translate(0.488 0.65)"/><rect class="reddit-b" width="34" height="34" transform="translate(-0.481)"/></g></svg>