<svg xmlns="http://www.w3.org/2000/svg" width="34" height="34" viewBox="0 0 34 34"><defs><style>.a{fill:none;}.b{fill:#fff;}</style></defs><rect class="a" width="34" height="34"/><rect class="a" width="34" height="34"/><path class="b" d="M26.344,7.194h0A23.428,23.428,0,0,0,20.551,5.4a.1.1,0,0,0-.09,0c-.258.482-.5.964-.717,1.468a21.489,21.489,0,0,0-6.454,0A14.89,14.89,0,0,0,12.563,5.4h-.09A23.428,23.428,0,0,0,6.726,7.194h0A23.865,23.865,0,0,0,2.513,23.283v.067A23.528,23.528,0,0,0,9.6,26.913a.112.112,0,0,0,.1,0,17.926,17.926,0,0,0,1.445-2.353.09.09,0,0,0,0-.112h0A15.753,15.753,0,0,1,8.91,23.406s-.067-.09,0-.123h0l.437-.336a.067.067,0,0,1,.09,0,16.7,16.7,0,0,0,14.184,0,.09.09,0,0,1,.1,0l.437.336a.1.1,0,0,1,0,.134h0a14.7,14.7,0,0,1-2.241,1.042.09.09,0,0,0,0,.123h0a19.474,19.474,0,0,0,1.445,2.353.1.1,0,0,0,.1,0,23.663,23.663,0,0,0,7.059-3.563.1.1,0,0,0,0-.067A23.685,23.685,0,0,0,26.344,7.194ZM11.835,20.078a2.711,2.711,0,0,1-2.532-2.8,2.7,2.7,0,0,1,2.532-2.846,2.689,2.689,0,0,1,2.543,2.846,2.7,2.7,0,0,1-2.543,2.8Zm9.378,0a2.711,2.711,0,0,1-2.532-2.8,2.7,2.7,0,0,1,2.532-2.846,2.678,2.678,0,0,1,2.543,2.846,2.689,2.689,0,0,1-2.543,2.8Z" transform="translate(-0.111 0.649)"/></svg>