<svg xmlns="http://www.w3.org/2000/svg" width="34" height="34" viewBox="0 0 34 34"><defs><style>.telegram-a{fill:none;}.telegram-b{fill:currentColor;}</style></defs><g transform="translate(0.444)"><rect class="telegram-a" width="34" height="34" transform="translate(-0.444)"/><path class="telegram-b" d="M16.445,3A13.445,13.445,0,1,0,29.89,16.445,13.445,13.445,0,0,0,16.445,3Zm6.229,9.143c-.2,2.129-1.12,7.283-1.524,9.669-.19,1.008-.56,1.344-.919,1.378-.773.067-1.367-.515-2.129-1.008-1.176-.784-1.849-1.266-3-2.017-1.322-.874-.459-1.356.291-2.14.2-.213,3.641-3.361,3.709-3.619a.291.291,0,0,0-.067-.246.314.314,0,0,0-.28,0q-.168,0-5.669,3.753a2.689,2.689,0,0,1-1.457.538,9.568,9.568,0,0,1-2.084-.5c-.852-.269-1.513-.415-1.457-.874,0-.246.359-.493,1-.751,3.921-1.7,6.532-2.835,7.843-3.361,3.731-1.557,4.482-1.826,5.019-1.837a.93.93,0,0,1,.515.157.549.549,0,0,1,.19.37A2.05,2.05,0,0,1,22.674,12.143Z" transform="translate(0.018 0.361)"/></g></svg>