<svg xmlns="http://www.w3.org/2000/svg" width="34" height="34" viewBox="0 0 34 34"><defs><style>.not-found-dark-a{fill:#fff;}.not-found-dark-b{fill:#787f98;}</style></defs><g transform="translate(4628 -3530.053)"><path class="not-found-dark-a" d="M-4597.5,3547.05s-6.04,9-13.5,9a11.211,11.211,0,0,1-4.93-1.24l1.51-1.51a8.631,8.631,0,0,0,3.42.75c4.85,0,9.22-4.77,11-7a26.01,26.01,0,0,0-4.06-4.11l1.42-1.42A28.559,28.559,0,0,1-4597.5,3547.05Z"/><path class="not-found-dark-a" d="M-4603.44,3540.91l-1.43,1.43a10.792,10.792,0,0,0-6.13-2.29c-4.85,0-9.22,4.78-11,7a22.874,22.874,0,0,0,6.61,5.81l-1.45,1.45a26.421,26.421,0,0,1-7.66-7.26s6.04-9,13.5-9A13.032,13.032,0,0,1-4603.44,3540.91Z"/><path class="not-found-dark-a" d="M-4607.19,3544.66l-1.48,1.48a2.509,2.509,0,0,0-2.33-1.59,2.507,2.507,0,0,0-2.5,2.5,2.5,2.5,0,0,0,1.59,2.33l-1.48,1.48a4.474,4.474,0,0,1-2.11-3.81,4.5,4.5,0,0,1,4.5-4.5A4.474,4.474,0,0,1-4607.19,3544.66Z"/><path class="not-found-dark-a" d="M-4606.5,3547.05a4.494,4.494,0,0,1-4.5,4.5,4.573,4.573,0,0,1-1.44-.23l1.8-1.8a2.482,2.482,0,0,0,2.11-2.11l1.8-1.8A4.574,4.574,0,0,1-4606.5,3547.05Z"/><rect class="not-found-dark-b" width="32.527" height="2" transform="translate(-4623.207 3557.846) rotate(-45)"/><path class="not-found-dark-b" d="M-4611,3532.053a15.017,15.017,0,0,1,15,15,15.017,15.017,0,0,1-15,15,15.017,15.017,0,0,1-15-15,15.017,15.017,0,0,1,15-15m0-2a17,17,0,0,0-17,17,17,17,0,0,0,17,17,17,17,0,0,0,17-17,17,17,0,0,0-17-17Z"/></g></svg>