<svg xmlns="http://www.w3.org/2000/svg" width="34" height="34" viewBox="0 0 34 34"><defs><style>.waiting-light-a{fill:none;}.waiting-light-b{fill:#abaebe;}.waiting-light-c{fill:#091440;}</style></defs><path class="waiting-light-a" d="M17,0h0A17,17,0,0,1,34,17h0A17,17,0,0,1,17,34h0A17,17,0,0,1,0,17H0A17,17,0,0,1,17,0Z"/><path class="waiting-light-b" d="M17,2A15,15,0,0,0,6.393,27.607,15,15,0,0,0,27.607,6.393,14.9,14.9,0,0,0,17,2m0-2A17,17,0,1,1,0,17,17,17,0,0,1,17,0Z"/><path class="waiting-light-c" d="M8.678,24.194a11.041,11.041,0,0,1-1.006-1.361L5.989,23.888c.061.1.115.2.178.292.033.05.065.1.1.149A13,13,0,0,0,7.174,25.5Z"/><path class="waiting-light-c" d="M29.416,20.865c.034-.109.055-.225.086-.336l-1.913-.539a10.9,10.9,0,0,1-.582,1.585l1.806.828c.023-.05.05-.1.072-.149.146-.33.275-.67.393-1.014.044-.126.1-.247.138-.374h0Z"/><path class="waiting-light-c" d="M17.717,27.977c-.237.015-.478.023-.717.023-.326,0-.655-.014-.978-.043l-.174,1.985c.38.033.763.058,1.152.058.285,0,.564-.025.844-.043Z"/><path class="waiting-light-c" d="M6.887,21.337a10.978,10.978,0,0,1-.544-1.6l-1.922.492c.041.157.076.317.122.472.023.08.045.161.07.241.119.375.252.744.4,1.1l.008.021c.009.02.019.038.028.057Z"/><path class="waiting-light-c" d="M27.994,16.641c0,.119.006.24.006.359a11.174,11.174,0,0,1-.08,1.334l1.976.238c.007-.062.021-.122.028-.185l.012-.125c.04-.416.064-.836.064-1.262,0-.143-.017-.281-.021-.423Z"/><path class="waiting-light-c" d="M11.98,28.993c.346.145.7.274,1.062.389.106.034.214.061.321.092.17.05.344.091.517.133l.475-1.927a10.824,10.824,0,0,1-1.6-.53Z"/><path class="waiting-light-c" d="M26.036,7.665A13.04,13.04,0,0,0,24.5,6.392L23.349,8.015A11.117,11.117,0,0,1,24.65,9.1Z"/><path class="waiting-light-c" d="M21.006,27.248a10.94,10.94,0,0,1-1.615.492l.431,1.944c.352-.078.7-.162,1.044-.268h0c.3-.091.579-.2.864-.316Z"/><path class="waiting-light-c" d="M11.249,26.379a11,11,0,0,1-1.369-.994L8.59,26.9c.046.039.087.084.134.122l.013.011c.152.125.316.236.474.355.259.194.522.381.795.555.067.043.136.082.2.124Z"/><path class="waiting-light-c" d="M26.187,23.053a11.162,11.162,0,0,1-1.038,1.336l1.47,1.334c.073-.081.149-.16.221-.243a13.21,13.21,0,0,0,.937-1.208c.026-.039.048-.081.074-.12Z"/><path class="waiting-light-c" d="M20.333,6.513a10.929,10.929,0,0,1,1.565.634l.885-1.777c-.085-.043-.172-.084-.259-.125q-.467-.22-.955-.4c-.21-.079-.417-.163-.632-.232Z"/><path class="waiting-light-c" d="M23.919,25.552a11.039,11.039,0,0,1-1.392.961l1,1.717A13.205,13.205,0,0,0,25.175,27.1Z"/><path class="waiting-light-c" d="M29.768,14.592c-.008-.045-.012-.093-.021-.138-.014-.071-.031-.141-.047-.212q-.111-.514-.26-1.015c-.023-.074-.048-.147-.071-.221-.038-.115-.084-.226-.125-.34l-1.871.663a10.89,10.89,0,0,1,.439,1.63Z"/><path class="waiting-light-c" d="M28.433,10.807l-.005-.009c-.194-.357-.406-.7-.631-1.039-.025-.036-.051-.07-.075-.1-.116-.169-.244-.328-.367-.491l-1.582,1.2a11.063,11.063,0,0,1,.915,1.422l1.759-.949Z"/><path class="waiting-light-c" d="M4.051,18c.006.088,0,.179.013.267l1.988-.193c0-.024,0-.049,0-.074H18V6.05c.231.02.461.044.688.078l.3-1.96c-.22-.034-.437-.078-.661-.1h0c-.108-.011-.22-.008-.329-.016V4H16V16H4v2Z"/></svg>