<svg xmlns="http://www.w3.org/2000/svg" width="34" height="34" viewBox="0 0 34 34"><defs><style>.medium-a,.b{fill:#091440;}.medium-b{opacity:0;}</style></defs><g transform="translate(0.444)"><path class="medium-a" d="M9.942,7.21A8.694,8.694,0,1,0,16.1,9.768,8.728,8.728,0,0,0,9.942,7.21Zm13.837.515c-2.386,0-4.325,3.675-4.325,8.213s1.938,8.213,4.325,8.213,4.336-3.675,4.336-8.213h0C28.115,11.4,26.176,7.725,23.779,7.725Zm6.722.852c-.84,0-1.513,3.294-1.513,7.361s.683,7.361,1.524,7.361,1.524-3.294,1.524-7.361-.683-7.361-1.524-7.361Z" transform="translate(-0.202 0.868)"/><rect class="medium-b" width="34" height="34" transform="translate(-0.444)"/></g></svg>