<svg xmlns="http://www.w3.org/2000/svg" width="34" height="34" viewBox="0 0 34 34"><defs><style>.github-a,.github-b{fill:#091440;}.github-b{opacity:0;}</style></defs><path class="github-a" d="M13.65,19.476c0,1.008-.527,2.655-1.759,2.655s-1.759-1.658-1.759-2.655.515-2.644,1.759-2.644S13.65,18.478,13.65,19.476Zm14.106-2.364a10.263,10.263,0,0,1-.84,4.482c-1.815,3.675-6.823,3.6-10.4,3.6s-8.963.123-10.834-3.6a10.33,10.33,0,0,1-.964-4.482A8.291,8.291,0,0,1,6.7,11.655a7.529,7.529,0,0,1-.37-2.386,4.762,4.762,0,0,1,.706-2.487A7.5,7.5,0,0,1,12.26,8.518a18.117,18.117,0,0,1,4.258-.482,16.56,16.56,0,0,1,3.865.437A7.428,7.428,0,0,1,25.56,6.781a4.751,4.751,0,0,1,.695,2.487,7.384,7.384,0,0,1-.37,2.319,8.269,8.269,0,0,1,1.871,5.524Zm-3.081,2.42a3.619,3.619,0,0,0-3.529-3.955,19.9,19.9,0,0,0-2.689.28,13.938,13.938,0,0,1-2.162.157,14.185,14.185,0,0,1-2.174-.157,19.551,19.551,0,0,0-2.678-.28c-2.241,0-3.529,1.849-3.529,3.955,0,4.224,3.854,4.874,7.215,4.874h2.319c3.372-.056,7.227-.706,7.227-4.93Zm-3.955-2.7c-1.244,0-1.759,1.647-1.759,2.644s.515,2.655,1.759,2.655,1.759-1.647,1.759-2.655S21.941,16.831,20.72,16.831Z" transform="translate(0.169 0.815)"/><rect class="github-b" width="34" height="34"/></svg>