<svg xmlns="http://www.w3.org/2000/svg" width="19" height="19" viewBox="0 0 19 19">
  <g id="Group_1470" data-name="Group 1470" transform="translate(-554 -269)">
    <path id="Path_159" data-name="Path 159" d="M2151.3,2247h-9.6a4.644,4.644,0,0,1-3.32-1.41,4.847,4.847,0,0,1-1.38-3.391v-9.4a4.847,4.847,0,0,1,1.38-3.391,4.645,4.645,0,0,1,3.32-1.409h9.6a4.645,4.645,0,0,1,3.32,1.409,4.847,4.847,0,0,1,1.38,3.391v9.4a4.847,4.847,0,0,1-1.38,3.391,4.644,4.644,0,0,1-3.32,1.41Z" transform="translate(-1583 -1959)" fill="#2970ff" fill-rule="evenodd"/>
    <g id="Small_donwload" data-name="Small donwload" transform="translate(20 -1)">
      <path id="Path_334" data-name="Path 334" d="M2598.7,3068v-4h3.6v4h2.7l-4.5,4-4.5-4Z" transform="translate(-2057 -2789.567)" fill="#fff"/>
      <rect id="Rectangle_144" data-name="Rectangle 144" width="9" height="1" transform="translate(539 283)" fill="#fff"/>
    </g>
  </g>
</svg>
