<svg xmlns="http://www.w3.org/2000/svg" width="24" height="24" viewBox="0 0 24 24">
  <g id="File_icon" data-name="File icon" transform="translate(-1463 -6109.33)">
    <rect id="Rectangle_187" data-name="Rectangle 187" width="24" height="24" transform="translate(1463 6109.33)" fill="none"/>
    <g id="Group_54" data-name="Group 54" transform="translate(2)">
      <path id="Path_212" data-name="Path 212" d="M472.334,2155H457.667v1.33h14.667Z" transform="translate(1008 3966)" fill="#091440"/>
      <path id="Path_213" data-name="Path 213" d="M464.974,2157.67h-7.307V2159h7.307Z" transform="translate(1008 3966)" fill="#091440"/>
      <path id="Path_214" data-name="Path 214" d="M456.333,2161.05v4.62h17.334v-21.34H456.333Zm1.334-11.38h14.666V2151H457.667Zm0,2.66h14.666v1.34H457.667Zm0,2.67h14.666v1.33H457.667Zm0,2.67h7.306V2159h-7.306Z" transform="translate(1008 3966)" fill="#c4cbd2"/>
      <path id="Path_215" data-name="Path 215" d="M472.334,2152.33H457.667v1.34h14.667Z" transform="translate(1008 3966)" fill="#091440"/>
      <path id="Path_216" data-name="Path 216" d="M472.334,2149.67H457.667V2151h14.667Z" transform="translate(1008 3966)" fill="#091440"/>
    </g>
  </g>
</svg>
