<svg xmlns="http://www.w3.org/2000/svg" width="24" height="24" viewBox="0 0 24 24">
  <g id="hash_icon" data-name="hash icon" transform="translate(-3534 -3882)">
    <rect id="Rectangle_186" data-name="Rectangle 186" width="24" height="24" transform="translate(3534 3882)" fill="#fff"/>
    <path id="Path_124" data-name="Path 124" d="M2135.33,1311.69l2.67,1.34v-1.34l-1.33-.66,1.33-.67v-1.33l-2.67,1.33Z" transform="translate(1400 2587)" fill="#c4cbd2"/>
    <path id="Path_125" data-name="Path 125" d="M2154,1313.03l1.33.66-1.33.67v1.33l2.67-1.33v-1.33l-2.67-1.34Z" transform="translate(1400 2587)" fill="#c4cbd2"/>
    <path id="Path_126" data-name="Path 126" d="M2152.67,1313.03h-13.34v1.33h13.34Z" transform="translate(1400 2587)" fill="#091440"/>
    <path id="Path_127" data-name="Path 127" d="M2144.88,1310.36h-5.55v1.33h5.55Z" transform="translate(1400 2587)" fill="#091440"/>
    <path id="Path_128" data-name="Path 128" d="M2152.67,1310.36H2146v1.33h6.67Z" transform="translate(1400 2587)" fill="#091440"/>
    <path id="Path_129" data-name="Path 129" d="M2146,1307.69h-6.67v1.34H2146Z" transform="translate(1400 2587)" fill="#091440"/>
    <path id="Path_130" data-name="Path 130" d="M2152.67,1307.69h-5.55v1.34h5.55Z" transform="translate(1400 2587)" fill="#091440"/>
    <path id="Path_131" data-name="Path 131" d="M2135.33,1301.03l2.67,1.33v-1.33l-1.33-.67,1.33-.67v-1.33l-2.67,1.33Z" transform="translate(1400 2587)" fill="#c4cbd2"/>
    <path id="Path_132" data-name="Path 132" d="M2154,1307.69l1.33.67-1.33.67v1.33l2.67-1.33v-1.34l-2.67-1.33Z" transform="translate(1400 2587)" fill="#c4cbd2"/>
    <path id="Path_133" data-name="Path 133" d="M2152.67,1299.69h-13.34v1.34h13.34Z" transform="translate(1400 2587)" fill="#091440"/>
    <path id="Path_134" data-name="Path 134" d="M2146,1302.36h-6.67v1.33H2146Z" transform="translate(1400 2587)" fill="#091440"/>
    <path id="Path_135" data-name="Path 135" d="M2152.67,1305.03h-13.34v1.33h13.34Z" transform="translate(1400 2587)" fill="#091440"/>
  </g>
</svg>
