<svg xmlns="http://www.w3.org/2000/svg" width="24" height="24" viewBox="0 0 24 24">
  <g id="Info_icon" data-name="Info icon" transform="translate(-1792 -4894)">
    <rect id="Rectangle_179" data-name="Rectangle 179" width="24" height="24" transform="translate(1792 4894)" fill="none"/>
    <path id="Path_56" data-name="Path 56" d="M805,1114a10.1,10.1,0,0,0-10,10,10,10,0,0,0,20,0,10.1,10.1,0,0,0-10-10Zm1.089,16.53H804.01v-8.91h2.079ZM805,1120.04a1.017,1.017,0,0,1-.488-.06,1.034,1.034,0,0,1-.422-.25,1.162,1.162,0,0,1-.283-.4,1.143,1.143,0,0,1-.094-.48,1.251,1.251,0,0,1,.11-.47,1.209,1.209,0,0,1,.284-.39,1.153,1.153,0,0,1,.414-.25,1.305,1.305,0,0,1,.479-.08,1.344,1.344,0,0,1,.488.06,1.175,1.175,0,0,1,.705.65,1.174,1.174,0,0,1,.094.48C806.385,1119.54,805.791,1120.04,805,1120.04Z" transform="translate(999 3782)" fill="#8997a5" opacity="0.5"/>
  </g>
</svg>
