<svg xmlns="http://www.w3.org/2000/svg" width="179.681" height="33.577" viewBox="0 0 179.681 33.577"><defs><style>.a{fill:#091440;}.b{fill:#777e96;}.c{fill:#2970ff;}.d{fill:#2dd8a3;}</style></defs><g transform="translate(4982.517 -3326.657)"><path class="a" d="M-4922.487,3338.692v-9.458h-3.61v-2.407h9.831v2.407h-3.611v9.458Z"/><path class="a" d="M-4913.751,3338.692v-11.865h2.61v11.865Z"/><path class="a" d="M-4907.941,3338.692v-11.865h2.814l3.119,5.017,3.118-5.017h2.814v11.865h-2.593v-7.746l-3.339,5.068h-.068l-3.306-5.017v7.695Z"/><path class="a" d="M-4893.255,3338.692v-11.865h8.95v2.322h-6.357v2.407h5.594v2.322h-5.594v2.492h6.441v2.322Z"/><path class="a" d="M-4877.412,3338.862a7.291,7.291,0,0,1-5.035-1.9l1.543-1.848a5.547,5.547,0,0,0,3.542,1.441,2.3,2.3,0,0,0,1.255-.3.929.929,0,0,0,.457-.822v-.034a.949.949,0,0,0-.474-.822,7.322,7.322,0,0,0-1.916-.687,13.729,13.729,0,0,1-1.644-.5,5.47,5.47,0,0,1-1.195-.653,2.417,2.417,0,0,1-.83-1.008,3.645,3.645,0,0,1-.263-1.466v-.034a3.233,3.233,0,0,1,1.161-2.594,4.473,4.473,0,0,1,2.992-.983,6.834,6.834,0,0,1,4.407,1.509l-1.356,1.966a5.527,5.527,0,0,0-3.085-1.17,1.9,1.9,0,0,0-1.127.289.881.881,0,0,0-.4.745v.034a.939.939,0,0,0,.492.865,9.638,9.638,0,0,0,2.068.7,7.219,7.219,0,0,1,2.848,1.3,2.824,2.824,0,0,1,.915,2.263v.034a3.3,3.3,0,0,1-1.195,2.7A4.846,4.846,0,0,1-4877.412,3338.862Z"/><path class="a" d="M-4867.793,3338.692v-9.458h-3.61v-2.407h9.831v2.407h-3.611v9.458Z"/><path class="a" d="M-4861.665,3338.692l5.085-11.95h2.407l5.086,11.95h-2.729l-1.085-2.661h-5.018l-1.084,2.661Zm4.679-4.966h3.152l-1.576-3.848Z"/><path class="a" d="M-4847.63,3338.692v-11.865h2.813l3.119,5.017,3.119-5.017h2.814v11.865h-2.593v-7.746l-3.34,5.068h-.068l-3.3-5.017v7.695Z"/><path class="a" d="M-4833.065,3338.692v-11.865h4.847a4.71,4.71,0,0,1,3.323,1.127,3.86,3.86,0,0,1,1.22,2.975v.034a3.728,3.728,0,0,1-1.356,3.076,5.308,5.308,0,0,1-3.441,1.093h-1.983v3.56Zm2.61-5.882h2.068a2.154,2.154,0,0,0,1.508-.508,1.666,1.666,0,0,0,.56-1.288v-.034a1.635,1.635,0,0,0-.56-1.331,2.362,2.362,0,0,0-1.559-.466h-2.017Z"/><path class="a" d="M-4821.786,3338.692v-11.865h2.611v9.492h5.915v2.373Z"/><path class="a" d="M-4810.006,3338.692v-4.678l-4.56-7.187h3.051l2.831,4.763,2.882-4.763h2.966l-4.56,7.136v4.729Z"/><path class="b" d="M-4925.829,3344.915h4.186c2.5,0,3.673,1.426,3.673,3.18a2.393,2.393,0,0,1-1.942,2.5v.117a2.8,2.8,0,0,1,2.409,2.994c0,1.8-1.169,3.181-4,3.181h-4.327Zm4.14,5.262a2.141,2.141,0,0,0,2.339-2.082c0-1.052-.7-1.894-2.293-1.894h-2.736v3.976Zm.187,5.426c1.894,0,2.619-.842,2.619-1.894a2.347,2.347,0,0,0-2.549-2.269h-2.947v4.163Z"/><path class="b" d="M-4915.643,3360.07l.351-1.216c1.006.257,1.637.129,2.128-1.216l.257-.7-3.321-9.028h1.5l2.479,7.157h.094l2.479-7.157,1.509.024-3.824,10.267a2.7,2.7,0,0,1-2.643,2.035A2.7,2.7,0,0,1-4915.643,3360.07Z"/><path class="b" d="M-4901.1,3356.89v-11.975h3.86c3.485,0,5.543,2.245,5.543,5.964,0,3.742-2.058,6.011-5.707,6.011Zm3.6-1.287c2.971,0,4.4-1.8,4.4-4.724,0-2.9-1.426-4.678-4.233-4.678h-2.315v9.4Z"/><path class="b" d="M-4890,3352.469c0-2.76,1.614-4.678,4.046-4.678,1.871,0,3.859,1.146,3.859,4.491v.585h-6.519c.064,1.923,1.181,2.97,2.8,2.97a2.2,2.2,0,0,0,2.246-1.4l1.333.374a3.494,3.494,0,0,1-3.579,2.269C-4888.411,3357.077-4890,3355.229-4890,3352.469Zm6.5-.795a2.435,2.435,0,0,0-2.456-2.643,2.681,2.681,0,0,0-2.66,2.643Z"/><path class="b" d="M-4880.538,3352.446c0-2.737,1.614-4.655,4.046-4.655a3.347,3.347,0,0,1,3.555,2.807h-1.38a2.105,2.105,0,0,0-2.152-1.567c-1.614,0-2.689,1.333-2.689,3.368,0,2.081,1.052,3.438,2.689,3.438a2.09,2.09,0,0,0,2.152-1.567h1.38a3.333,3.333,0,0,1-3.532,2.807C-4879,3357.077-4880.538,3355.135-4880.538,3352.446Z"/><path class="b" d="M-4871.047,3347.908h1.333v1.357h.094a2.443,2.443,0,0,1,2.338-1.5c.205,0,.568.012.725.023v1.4a4.128,4.128,0,0,0-.841-.094,2.124,2.124,0,0,0-2.269,2.1v5.684h-1.38Z"/><path class="b" d="M-4865.673,3352.469c0-2.76,1.614-4.678,4.047-4.678,1.871,0,3.859,1.146,3.859,4.491v.585h-6.52c.064,1.923,1.181,2.97,2.8,2.97a2.2,2.2,0,0,0,2.245-1.4l1.333.374a3.492,3.492,0,0,1-3.578,2.269C-4864.082,3357.077-4865.673,3355.229-4865.673,3352.469Zm6.5-.795a2.435,2.435,0,0,0-2.455-2.643,2.682,2.682,0,0,0-2.661,2.643Z"/><path class="b" d="M-4856.21,3352.422c0-2.83,1.567-4.631,3.836-4.631a2.735,2.735,0,0,1,2.6,1.544h.117v-4.42h1.38v11.975h-1.333v-1.38h-.164a2.78,2.78,0,0,1-2.62,1.567C-4854.643,3357.077-4856.21,3355.276-4856.21,3352.422Zm6.572-.023c0-2.012-.888-3.368-2.572-3.368-1.755,0-2.62,1.473-2.62,3.368,0,1.918.889,3.438,2.62,3.438C-4850.55,3355.837-4849.638,3354.434-4849.638,3352.4Z"/><path class="a" d="M-4953.2,3326.89v5.932l-8.785.055a9.045,9.045,0,0,0-8.573,6.171v-.2h-6v3.054h-.4A14.974,14.974,0,0,1-4962,3326.944Z"/><rect class="c" width="5.995" height="5.995" transform="translate(-4982.517 3338.849)"/><rect class="d" width="5.995" height="5.995" transform="translate(-4970.636 3338.849)"/><path class="a" d="M-4946.459,3341.846a14.974,14.974,0,0,1-14.957,14.957h-8.773v-5.932h8.773a9.039,9.039,0,0,0,8.648-6.445v.418h6v-3Z"/><rect class="c" width="5.995" height="5.995" transform="translate(-4958.731 3338.849)"/><rect class="d" width="5.995" height="5.995" transform="translate(-4946.851 3338.849)"/></g></svg>